<svg width="40" height="40" viewBox="0 0 40 40" fill="none" xmlns="http://www.w3.org/2000/svg">
<rect width="40" height="40" fill="white" fill-opacity="0.1"/>
<path d="M31.6666 21.6665C31.2246 21.6665 30.8006 21.8421 30.4881 22.1546C30.1755 22.4672 29.9999 22.8911 29.9999 23.3332V23.9665L27.5333 21.4998C26.6623 20.6357 25.4851 20.1509 24.2583 20.1509C23.0314 20.1509 21.8542 20.6357 20.9833 21.4998L19.8166 22.6665L15.6833 18.5332C14.8001 17.6925 13.6275 17.2236 12.4083 17.2236C11.189 17.2236 10.0164 17.6925 9.13325 18.5332L6.66659 20.9998V11.6665C6.66659 11.2245 6.84218 10.8005 7.15474 10.488C7.4673 10.1754 7.89122 9.99983 8.33325 9.99983H19.9999C20.4419 9.99983 20.8659 9.82423 21.1784 9.51167C21.491 9.19911 21.6666 8.77519 21.6666 8.33316C21.6666 7.89113 21.491 7.46721 21.1784 7.15465C20.8659 6.84209 20.4419 6.66649 19.9999 6.66649H8.33325C7.00717 6.66649 5.7354 7.19328 4.79772 8.13096C3.86004 9.06864 3.33325 10.3404 3.33325 11.6665V31.6665C3.33325 32.9926 3.86004 34.2643 4.79772 35.202C5.7354 36.1397 7.00717 36.6665 8.33325 36.6665H28.3333C29.6593 36.6665 30.9311 36.1397 31.8688 35.202C32.8065 34.2643 33.3333 32.9926 33.3333 31.6665V23.3332C33.3333 22.8911 33.1577 22.4672 32.8451 22.1546C32.5325 21.8421 32.1086 21.6665 31.6666 21.6665ZM8.33325 33.3332C7.89122 33.3332 7.4673 33.1576 7.15474 32.845C6.84218 32.5324 6.66659 32.1085 6.66659 31.6665V25.7165L11.4999 20.8832C11.7448 20.6498 12.07 20.5197 12.4083 20.5197C12.7465 20.5197 13.0717 20.6498 13.3166 20.8832L18.5999 26.1665L25.7666 33.3332H8.33325ZM29.9999 31.6665C29.9975 31.9855 29.8923 32.2953 29.6999 32.5498L22.1833 24.9998L23.3499 23.8332C23.4694 23.7112 23.612 23.6143 23.7694 23.5482C23.9268 23.482 24.0959 23.448 24.2666 23.448C24.4373 23.448 24.6063 23.482 24.7637 23.5482C24.9211 23.6143 25.0638 23.7112 25.1833 23.8332L29.9999 28.6832V31.6665ZM37.8499 7.14983L32.8499 2.14983C32.6914 1.99809 32.5045 1.87915 32.2999 1.79983C31.8941 1.63313 31.439 1.63313 31.0333 1.79983C30.8287 1.87915 30.6418 1.99809 30.4833 2.14983L25.4833 7.14983C25.1694 7.46367 24.9931 7.88932 24.9931 8.33316C24.9931 8.777 25.1694 9.20265 25.4833 9.51649C25.7971 9.83033 26.2227 10.0066 26.6666 10.0066C27.1104 10.0066 27.5361 9.83033 27.8499 9.51649L29.9999 7.34983V16.6665C29.9999 17.1085 30.1755 17.5324 30.4881 17.845C30.8006 18.1576 31.2246 18.3332 31.6666 18.3332C32.1086 18.3332 32.5325 18.1576 32.8451 17.845C33.1577 17.5324 33.3333 17.1085 33.3333 16.6665V7.34983L35.4833 9.51649C35.6382 9.67271 35.8225 9.7967 36.0256 9.88131C36.2287 9.96593 36.4466 10.0095 36.6666 10.0095C36.8866 10.0095 37.1044 9.96593 37.3075 9.88131C37.5106 9.7967 37.695 9.67271 37.8499 9.51649C38.0061 9.36155 38.1301 9.17722 38.2147 8.97412C38.2994 8.77102 38.3429 8.55318 38.3429 8.33316C38.3429 8.11314 38.2994 7.8953 38.2147 7.6922C38.1301 7.4891 38.0061 7.30476 37.8499 7.14983Z" fill="#3C3C3C"/>
</svg>
