<svg width="147" height="36" viewBox="0 0 147 36" fill="none" xmlns="http://www.w3.org/2000/svg">
<path d="M6.344 27.14C5.312 27.14 4.796 26.6 4.796 25.52C4.796 24.992 4.892 24.416 5.084 23.792C4.652 23.696 4.148 23.552 3.572 23.36C3.02 23.168 2.48 22.928 1.952 22.64C1.424 22.328 0.98 21.956 0.62 21.524C0.284 21.092 0.116 20.6 0.116 20.048C0.116 19.424 0.32 18.836 0.728 18.284C1.136 17.732 1.556 17.264 1.988 16.88C2.708 16.208 3.584 15.608 4.616 15.08C5.648 14.552 6.716 14.096 7.82 13.712C8.948 13.328 9.98 13.016 10.916 12.776C11.564 11.792 12.224 10.82 12.896 9.86C13.592 8.876 14.276 7.904 14.948 6.944C15.332 6.44 15.704 5.936 16.064 5.432C16.448 4.904 16.844 4.412 17.252 3.956C17.228 3.764 17.312 3.512 17.504 3.2C17.72 2.888 17.948 2.588 18.188 2.3C18.452 1.988 18.644 1.76 18.764 1.616C18.404 1.592 18.044 1.58 17.684 1.58C17.348 1.556 17 1.544 16.64 1.544C15.68 1.544 14.72 1.592 13.76 1.688C12.8 1.76 11.852 1.88 10.916 2.048C10.148 2.192 9.26 2.42 8.252 2.732C7.244 3.044 6.26 3.452 5.3 3.956C4.364 4.46 3.584 5.084 2.96 5.828C2.36 6.572 2.06 7.436 2.06 8.42C2.06 9.02 2.18 9.572 2.42 10.076C2.684 10.556 2.972 10.976 3.284 11.336C3.62 11.696 3.908 11.984 4.148 12.2C4.412 12.416 4.544 12.56 4.544 12.632C4.544 12.68 4.496 12.704 4.4 12.704C4.304 12.704 4.208 12.68 4.112 12.632C4.016 12.584 3.932 12.548 3.86 12.524C3.356 12.188 2.828 11.768 2.276 11.264C1.724 10.76 1.256 10.208 0.872 9.608C0.512 8.984 0.332 8.336 0.332 7.664C0.332 6.848 0.584 6.128 1.088 5.504C1.592 4.856 2.252 4.292 3.068 3.812C3.884 3.332 4.76 2.924 5.696 2.588C6.632 2.252 7.532 1.988 8.396 1.796C9.284 1.58 10.028 1.424 10.628 1.328C11.636 1.16 12.656 1.04 13.688 0.967998C14.72 0.871998 15.752 0.823998 16.784 0.823998C17.648 0.823998 18.488 0.859998 19.304 0.931999C19.448 0.644 19.736 0.439999 20.168 0.319998C20.624 0.199998 20.984 0.139998 21.248 0.139998C21.368 0.139998 21.536 0.163999 21.752 0.211999C21.968 0.235999 22.076 0.331999 22.076 0.5C22.076 0.595999 22.004 0.715999 21.86 0.86C21.716 1.004 21.608 1.112 21.536 1.184C22.664 1.376 23.852 1.688 25.1 2.12C26.348 2.528 27.524 3.092 28.628 3.812C29.732 4.508 30.62 5.36 31.292 6.368C31.988 7.376 32.336 8.552 32.336 9.896C32.336 11.072 32.06 12.188 31.508 13.244C30.98 14.276 30.26 15.236 29.348 16.124C28.46 17.012 27.476 17.828 26.396 18.572C25.316 19.292 24.224 19.94 23.12 20.516C22.04 21.068 21.032 21.548 20.096 21.956C18.416 22.652 16.616 23.204 14.696 23.612C12.8 24.044 10.94 24.26 9.116 24.26C8.492 24.26 7.856 24.224 7.208 24.152C7.184 24.368 7.148 24.572 7.1 24.764C7.076 24.98 7.064 25.184 7.064 25.376C7.064 25.568 7.1 25.784 7.172 26.024C7.244 26.288 7.412 26.42 7.676 26.42C8.012 26.42 8.336 26.288 8.648 26.024C8.96 25.784 9.236 25.532 9.476 25.268C9.716 25.028 9.884 24.908 9.98 24.908C10.028 24.908 10.052 24.944 10.052 25.016C10.052 25.04 10.04 25.052 10.016 25.052C10.016 25.076 10.016 25.1 10.016 25.124C9.968 25.388 9.824 25.652 9.584 25.916C9.344 26.204 9.092 26.408 8.828 26.528C8.516 26.672 8.12 26.804 7.64 26.924C7.16 27.068 6.728 27.14 6.344 27.14ZM7.388 23.396H7.604C8.852 23.396 10.16 23.264 11.528 23C12.896 22.712 14.24 22.352 15.56 21.92C16.88 21.464 18.092 20.984 19.196 20.48C19.988 20.12 20.888 19.676 21.896 19.148C22.928 18.596 23.96 17.984 24.992 17.312C26.024 16.616 26.972 15.86 27.836 15.044C28.724 14.204 29.432 13.316 29.96 12.38C30.512 11.42 30.788 10.412 30.788 9.356C30.788 8.18 30.464 7.16 29.816 6.296C29.168 5.408 28.328 4.664 27.296 4.064C26.288 3.464 25.22 2.984 24.092 2.624C22.964 2.264 21.92 2.012 20.96 1.868C19.544 3.524 18.164 5.216 16.82 6.944C15.5 8.672 14.24 10.436 13.04 12.236C14.528 11.9 16.052 11.636 17.612 11.444C19.196 11.228 20.756 11.12 22.292 11.12C22.292 11.12 22.34 11.12 22.436 11.12C22.556 11.12 22.616 11.144 22.616 11.192C22.616 11.264 22.556 11.312 22.436 11.336C22.316 11.36 22.244 11.372 22.22 11.372C18.932 11.612 15.656 12.224 12.392 13.208C11.432 14.672 10.472 16.304 9.512 18.104C8.576 19.904 7.868 21.668 7.388 23.396ZM5.3 23.144C5.852 21.512 6.572 19.928 7.46 18.392C8.372 16.856 9.284 15.356 10.196 13.892C9.62 14.108 8.864 14.408 7.928 14.792C6.992 15.152 6.056 15.596 5.12 16.124C4.208 16.652 3.428 17.24 2.78 17.888C2.156 18.536 1.844 19.232 1.844 19.976C1.844 20.552 2.024 21.056 2.384 21.488C2.768 21.92 3.224 22.28 3.752 22.568C4.304 22.832 4.82 23.024 5.3 23.144ZM33.2458 23.252C32.7178 23.252 32.3698 23.168 32.2018 23C32.0338 22.832 31.9498 22.484 31.9498 21.956C31.9498 21.38 32.0818 20.72 32.3458 19.976C32.6338 19.232 32.8978 18.608 33.1378 18.104C33.1378 18.08 33.1258 18.068 33.1018 18.068C33.1018 18.044 33.1018 18.02 33.1018 17.996C33.1018 17.876 33.1378 17.78 33.2098 17.708C33.3058 17.636 33.3778 17.564 33.4258 17.492C33.5458 17.3 33.6538 17.108 33.7498 16.916C33.8458 16.724 33.9418 16.544 34.0378 16.376C34.4458 15.728 34.9378 15.104 35.5138 14.504C36.1138 13.904 36.7858 13.496 37.5298 13.28C37.7938 13.208 38.0458 13.172 38.2858 13.172C38.3338 13.172 38.3818 13.184 38.4298 13.208C38.5018 13.208 38.5378 13.232 38.5378 13.28C38.5378 13.352 38.4658 13.436 38.3218 13.532C38.2018 13.628 38.1178 13.7 38.0698 13.748C37.6858 14.06 37.2658 14.54 36.8098 15.188C36.3778 15.836 36.0298 16.364 35.7658 16.772C36.3178 16.676 36.8578 16.604 37.3858 16.556C37.9378 16.508 38.4778 16.508 39.0058 16.556C39.2698 16.172 39.5098 15.704 39.7258 15.152C39.9658 14.576 40.0858 14.048 40.0858 13.568C40.0858 13.304 40.0498 13.148 39.9778 13.1C39.9298 13.052 39.7978 13.028 39.5818 13.028C39.5338 13.028 39.4618 13.016 39.3658 12.992C39.2698 12.968 39.2218 12.92 39.2218 12.848C39.2218 12.752 39.3298 12.668 39.5458 12.596C39.7618 12.524 39.9898 12.476 40.2298 12.452C40.4698 12.404 40.6258 12.38 40.6978 12.38C41.3458 12.38 41.6698 12.68 41.6698 13.28C41.6698 13.616 41.5618 14.024 41.3458 14.504C41.1538 14.96 40.9018 15.392 40.5898 15.8C40.3018 16.184 40.0138 16.46 39.7258 16.628C39.7978 16.628 39.9418 16.664 40.1578 16.736C40.3978 16.784 40.6138 16.844 40.8058 16.916C41.0218 16.988 41.1298 17.072 41.1298 17.168C41.1298 17.24 41.0578 17.288 40.9138 17.312C40.7698 17.312 40.6738 17.312 40.6258 17.312C40.4098 17.312 40.1938 17.3 39.9778 17.276C39.7618 17.228 39.5458 17.204 39.3298 17.204C38.6578 17.204 37.9738 17.252 37.2778 17.348C36.6058 17.444 35.9338 17.564 35.2618 17.708C35.0218 18.14 34.7458 18.692 34.4338 19.364C34.1458 20.036 34.0018 20.636 34.0018 21.164C34.0018 22.004 34.4338 22.424 35.2978 22.424C35.9218 22.424 36.5218 22.256 37.0978 21.92C37.6978 21.584 38.2498 21.188 38.7538 20.732C39.2578 20.276 39.6658 19.88 39.9778 19.544C40.2898 19.208 40.4698 19.04 40.5178 19.04C40.5898 19.04 40.6258 19.088 40.6258 19.184C40.6258 19.472 40.4578 19.82 40.1218 20.228C39.7858 20.612 39.5098 20.888 39.2938 21.056C38.4538 21.704 37.5058 22.232 36.4498 22.64C35.4178 23.048 34.3498 23.252 33.2458 23.252ZM48.9469 23.288C48.2989 23.288 47.8669 23.036 47.6509 22.532C47.4349 22.004 47.3269 21.476 47.3269 20.948C47.3269 20.348 47.3749 19.748 47.4709 19.148C47.5669 18.548 47.6749 17.96 47.7949 17.384C47.5549 17.792 47.1709 18.32 46.6429 18.968C46.1149 19.616 45.5269 20.276 44.8789 20.948C44.2309 21.596 43.5709 22.148 42.8989 22.604C42.2509 23.036 41.6749 23.252 41.1709 23.252C40.8829 23.252 40.6909 23.156 40.5949 22.964C40.5229 22.772 40.4869 22.556 40.4869 22.316C40.4869 21.812 40.6069 21.176 40.8469 20.408C41.0869 19.64 41.4229 18.836 41.8549 17.996C42.2869 17.132 42.7669 16.34 43.2949 15.62C43.8469 14.9 44.4109 14.324 44.9869 13.892C45.5869 13.436 46.1869 13.232 46.7869 13.28C47.0509 13.136 47.3389 13.004 47.6509 12.884C47.9629 12.764 48.2749 12.704 48.5869 12.704C48.8269 12.704 49.0669 12.728 49.3069 12.776C49.5709 12.8 49.8229 12.836 50.0629 12.884C50.1829 12.836 50.3149 12.788 50.4589 12.74C50.6029 12.692 50.7469 12.668 50.8909 12.668C51.1549 12.668 51.2869 12.788 51.2869 13.028C51.2869 13.148 51.2149 13.388 51.0709 13.748C50.9509 14.084 50.8069 14.408 50.6389 14.72C50.4949 15.008 50.3749 15.176 50.2789 15.224C50.0629 15.656 49.8589 16.22 49.6669 16.916C49.4749 17.588 49.3189 18.284 49.1989 19.004C49.0789 19.724 49.0189 20.336 49.0189 20.84C49.0189 21.104 49.0549 21.404 49.1269 21.74C49.2229 22.052 49.4509 22.208 49.8109 22.208C50.2189 22.208 50.6269 22.052 51.0349 21.74C51.4669 21.404 51.8389 21.08 52.1509 20.768C52.4629 20.432 52.6429 20.264 52.6909 20.264C52.7389 20.264 52.7629 20.288 52.7629 20.336C52.7629 20.552 52.6429 20.804 52.4029 21.092C52.1629 21.38 51.8989 21.656 51.6109 21.92C51.3229 22.16 51.1069 22.34 50.9629 22.46C50.6749 22.676 50.3509 22.868 49.9909 23.036C49.6549 23.204 49.3069 23.288 48.9469 23.288ZM42.4309 22.028C42.5509 22.028 42.6949 21.98 42.8629 21.884C43.0309 21.764 43.1629 21.668 43.2589 21.596C44.6989 20.564 45.8269 19.376 46.6429 18.032C47.4589 16.688 48.2509 15.248 49.0189 13.712C48.9229 13.664 48.8149 13.628 48.6949 13.604C48.5749 13.58 48.4549 13.568 48.3349 13.568C47.8789 13.568 47.4229 13.688 46.9669 13.928C46.5349 14.168 46.1749 14.456 45.8869 14.792C45.4309 15.272 44.9629 15.908 44.4829 16.7C44.0269 17.468 43.6069 18.272 43.2229 19.112C42.8389 19.928 42.5509 20.66 42.3589 21.308C42.3349 21.38 42.3109 21.452 42.2869 21.524C42.2629 21.596 42.2509 21.68 42.2509 21.776C42.2509 21.944 42.3109 22.028 42.4309 22.028ZM52.487 23.54C52.319 23.54 52.247 23.48 52.271 23.36C52.895 22.256 53.447 21.128 53.927 19.976C54.407 18.8 54.875 17.624 55.331 16.448L55.727 15.404C55.727 15.332 55.667 15.308 55.547 15.332C55.427 15.356 55.367 15.32 55.367 15.224C55.367 15.176 55.463 14.996 55.655 14.684C55.847 14.348 56.051 14.012 56.267 13.676C56.483 13.316 56.615 13.1 56.663 13.028C56.759 12.884 56.975 12.74 57.311 12.596C57.647 12.452 57.899 12.38 58.067 12.38C58.331 12.38 58.463 12.488 58.463 12.704C58.463 12.776 58.451 12.848 58.427 12.92C58.403 12.992 58.379 13.052 58.355 13.1C57.995 13.964 57.599 14.828 57.167 15.692C56.759 16.532 56.423 17.408 56.159 18.32C56.855 17.48 57.611 16.664 58.427 15.872C59.267 15.056 60.119 14.312 60.983 13.64C61.223 13.448 61.487 13.268 61.775 13.1C62.087 12.932 62.399 12.848 62.711 12.848C63.095 12.848 63.335 12.992 63.431 13.28C63.527 13.544 63.575 13.82 63.575 14.108C63.575 14.492 63.455 14.9 63.215 15.332C62.975 15.764 62.627 15.98 62.171 15.98C61.979 15.98 61.883 15.908 61.883 15.764C61.883 15.644 61.895 15.548 61.919 15.476C61.943 15.38 61.955 15.284 61.955 15.188C61.955 15.068 61.907 14.924 61.811 14.756C61.715 14.588 61.607 14.504 61.487 14.504C61.175 14.504 60.755 14.696 60.227 15.08C59.699 15.464 59.147 15.932 58.571 16.484C58.019 17.036 57.515 17.576 57.059 18.104C56.627 18.608 56.315 18.98 56.123 19.22C55.859 19.604 55.631 20 55.439 20.408C55.247 20.792 55.091 21.188 54.971 21.596C54.923 21.74 54.875 21.896 54.827 22.064C54.779 22.208 54.731 22.34 54.683 22.46C54.635 22.58 54.455 22.736 54.143 22.928C53.831 23.096 53.507 23.24 53.171 23.36C52.859 23.48 52.631 23.54 52.487 23.54ZM79.6448 27.14C78.6128 27.14 78.0968 26.6 78.0968 25.52C78.0968 24.992 78.1928 24.416 78.3848 23.792C77.9528 23.696 77.4488 23.552 76.8728 23.36C76.3208 23.168 75.7808 22.928 75.2528 22.64C74.7248 22.328 74.2808 21.956 73.9208 21.524C73.5848 21.092 73.4168 20.6 73.4168 20.048C73.4168 19.424 73.6208 18.836 74.0288 18.284C74.4368 17.732 74.8568 17.264 75.2888 16.88C76.0088 16.208 76.8848 15.608 77.9168 15.08C78.9488 14.552 80.0168 14.096 81.1208 13.712C82.2488 13.328 83.2808 13.016 84.2168 12.776C84.8648 11.792 85.5248 10.82 86.1968 9.86C86.8928 8.876 87.5768 7.904 88.2488 6.944C88.6328 6.44 89.0048 5.936 89.3648 5.432C89.7488 4.904 90.1448 4.412 90.5528 3.956C90.5288 3.764 90.6128 3.512 90.8048 3.2C91.0208 2.888 91.2488 2.588 91.4888 2.3C91.7528 1.988 91.9448 1.76 92.0648 1.616C91.7048 1.592 91.3448 1.58 90.9848 1.58C90.6488 1.556 90.3008 1.544 89.9408 1.544C88.9808 1.544 88.0208 1.592 87.0608 1.688C86.1008 1.76 85.1528 1.88 84.2168 2.048C83.4488 2.192 82.5608 2.42 81.5528 2.732C80.5448 3.044 79.5608 3.452 78.6008 3.956C77.6648 4.46 76.8848 5.084 76.2608 5.828C75.6608 6.572 75.3608 7.436 75.3608 8.42C75.3608 9.02 75.4808 9.572 75.7208 10.076C75.9848 10.556 76.2728 10.976 76.5848 11.336C76.9208 11.696 77.2088 11.984 77.4488 12.2C77.7128 12.416 77.8448 12.56 77.8448 12.632C77.8448 12.68 77.7968 12.704 77.7008 12.704C77.6048 12.704 77.5088 12.68 77.4128 12.632C77.3168 12.584 77.2328 12.548 77.1608 12.524C76.6568 12.188 76.1288 11.768 75.5768 11.264C75.0248 10.76 74.5568 10.208 74.1728 9.608C73.8128 8.984 73.6328 8.336 73.6328 7.664C73.6328 6.848 73.8848 6.128 74.3888 5.504C74.8928 4.856 75.5528 4.292 76.3688 3.812C77.1848 3.332 78.0608 2.924 78.9968 2.588C79.9328 2.252 80.8328 1.988 81.6968 1.796C82.5848 1.58 83.3288 1.424 83.9288 1.328C84.9368 1.16 85.9568 1.04 86.9888 0.967998C88.0208 0.871998 89.0528 0.823998 90.0848 0.823998C90.9488 0.823998 91.7888 0.859998 92.6048 0.931999C92.7488 0.644 93.0368 0.439999 93.4688 0.319998C93.9248 0.199998 94.2848 0.139998 94.5488 0.139998C94.6688 0.139998 94.8368 0.163999 95.0528 0.211999C95.2688 0.235999 95.3768 0.331999 95.3768 0.5C95.3768 0.595999 95.3048 0.715999 95.1608 0.86C95.0168 1.004 94.9088 1.112 94.8368 1.184C95.9648 1.376 97.1528 1.688 98.4008 2.12C99.6488 2.528 100.825 3.092 101.929 3.812C103.033 4.508 103.921 5.36 104.593 6.368C105.289 7.376 105.637 8.552 105.637 9.896C105.637 11.072 105.361 12.188 104.809 13.244C104.281 14.276 103.561 15.236 102.649 16.124C101.761 17.012 100.777 17.828 99.6968 18.572C98.6168 19.292 97.5248 19.94 96.4208 20.516C95.3408 21.068 94.3328 21.548 93.3968 21.956C91.7168 22.652 89.9168 23.204 87.9968 23.612C86.1008 24.044 84.2408 24.26 82.4168 24.26C81.7928 24.26 81.1568 24.224 80.5088 24.152C80.4848 24.368 80.4488 24.572 80.4008 24.764C80.3768 24.98 80.3648 25.184 80.3648 25.376C80.3648 25.568 80.4008 25.784 80.4728 26.024C80.5448 26.288 80.7128 26.42 80.9768 26.42C81.3128 26.42 81.6368 26.288 81.9488 26.024C82.2608 25.784 82.5368 25.532 82.7768 25.268C83.0168 25.028 83.1848 24.908 83.2808 24.908C83.3288 24.908 83.3528 24.944 83.3528 25.016C83.3528 25.04 83.3408 25.052 83.3168 25.052C83.3168 25.076 83.3168 25.1 83.3168 25.124C83.2688 25.388 83.1248 25.652 82.8848 25.916C82.6448 26.204 82.3928 26.408 82.1288 26.528C81.8168 26.672 81.4208 26.804 80.9408 26.924C80.4608 27.068 80.0288 27.14 79.6448 27.14ZM80.6888 23.396H80.9048C82.1528 23.396 83.4608 23.264 84.8288 23C86.1968 22.712 87.5408 22.352 88.8608 21.92C90.1808 21.464 91.3928 20.984 92.4968 20.48C93.2888 20.12 94.1888 19.676 95.1968 19.148C96.2288 18.596 97.2608 17.984 98.2928 17.312C99.3248 16.616 100.273 15.86 101.137 15.044C102.025 14.204 102.733 13.316 103.261 12.38C103.813 11.42 104.089 10.412 104.089 9.356C104.089 8.18 103.765 7.16 103.117 6.296C102.469 5.408 101.629 4.664 100.597 4.064C99.5888 3.464 98.5208 2.984 97.3928 2.624C96.2648 2.264 95.2208 2.012 94.2608 1.868C92.8448 3.524 91.4648 5.216 90.1208 6.944C88.8008 8.672 87.5408 10.436 86.3408 12.236C87.8288 11.9 89.3528 11.636 90.9128 11.444C92.4968 11.228 94.0568 11.12 95.5928 11.12C95.5928 11.12 95.6408 11.12 95.7368 11.12C95.8568 11.12 95.9168 11.144 95.9168 11.192C95.9168 11.264 95.8568 11.312 95.7368 11.336C95.6168 11.36 95.5448 11.372 95.5208 11.372C92.2328 11.612 88.9568 12.224 85.6928 13.208C84.7328 14.672 83.7728 16.304 82.8128 18.104C81.8768 19.904 81.1688 21.668 80.6888 23.396ZM78.6008 23.144C79.1528 21.512 79.8728 19.928 80.7608 18.392C81.6728 16.856 82.5848 15.356 83.4968 13.892C82.9208 14.108 82.1648 14.408 81.2288 14.792C80.2928 15.152 79.3568 15.596 78.4208 16.124C77.5088 16.652 76.7288 17.24 76.0808 17.888C75.4568 18.536 75.1448 19.232 75.1448 19.976C75.1448 20.552 75.3248 21.056 75.6848 21.488C76.0688 21.92 76.5248 22.28 77.0528 22.568C77.6048 22.832 78.1208 23.024 78.6008 23.144ZM109.823 11.336C109.751 11.336 109.703 11.252 109.679 11.084C109.679 10.892 109.679 10.772 109.679 10.724C109.679 10.652 109.691 10.496 109.715 10.256C109.739 10.016 109.811 9.884 109.931 9.86C110.267 9.812 110.603 9.752 110.939 9.68C111.275 9.608 111.611 9.524 111.947 9.428C111.995 9.404 112.067 9.392 112.163 9.392C112.283 9.392 112.343 9.452 112.343 9.572C112.343 9.836 112.175 10.112 111.839 10.4C111.527 10.664 111.167 10.892 110.759 11.084C110.375 11.252 110.063 11.336 109.823 11.336ZM106.907 23C105.731 23 105.143 22.4 105.143 21.2C105.143 20.696 105.215 20.18 105.359 19.652C105.527 19.124 105.707 18.632 105.899 18.176C106.115 17.648 106.355 17.132 106.619 16.628C106.883 16.124 107.147 15.62 107.411 15.116C107.531 14.9 107.639 14.684 107.735 14.468C107.855 14.228 107.975 14 108.095 13.784C108.215 13.616 108.443 13.472 108.779 13.352C109.115 13.232 109.379 13.172 109.571 13.172C109.595 13.172 109.595 13.184 109.571 13.208C109.547 13.208 109.535 13.208 109.535 13.208C109.559 13.208 109.571 13.22 109.571 13.244C109.619 13.196 109.679 13.172 109.751 13.172C109.847 13.172 109.907 13.22 109.931 13.316C109.955 13.388 109.967 13.46 109.967 13.532C109.967 13.7 109.895 13.952 109.751 14.288C109.631 14.624 109.475 14.948 109.283 15.26C109.115 15.548 108.947 15.728 108.779 15.8C108.563 16.304 108.275 16.856 107.915 17.456C107.579 18.056 107.267 18.668 106.979 19.292C106.691 19.892 106.547 20.48 106.547 21.056C106.547 21.728 106.907 22.064 107.627 22.064C107.963 22.064 108.323 21.956 108.707 21.74C109.115 21.524 109.511 21.272 109.895 20.984C110.279 20.672 110.603 20.408 110.867 20.192C111.155 19.976 111.335 19.868 111.407 19.868C111.431 19.868 111.443 19.88 111.443 19.904C111.443 20 111.407 20.108 111.335 20.228C111.263 20.324 111.203 20.396 111.155 20.444C110.867 20.828 110.483 21.224 110.003 21.632C109.523 22.016 109.007 22.34 108.455 22.604C107.927 22.868 107.411 23 106.907 23ZM118.556 23.288C117.908 23.288 117.476 23.036 117.26 22.532C117.044 22.004 116.936 21.476 116.936 20.948C116.936 20.348 116.984 19.748 117.08 19.148C117.176 18.548 117.284 17.96 117.404 17.384C117.164 17.792 116.78 18.32 116.252 18.968C115.724 19.616 115.136 20.276 114.488 20.948C113.84 21.596 113.18 22.148 112.508 22.604C111.86 23.036 111.284 23.252 110.78 23.252C110.492 23.252 110.3 23.156 110.204 22.964C110.132 22.772 110.096 22.556 110.096 22.316C110.096 21.812 110.216 21.176 110.456 20.408C110.696 19.64 111.032 18.836 111.464 17.996C111.896 17.132 112.376 16.34 112.904 15.62C113.456 14.9 114.02 14.324 114.596 13.892C115.196 13.436 115.796 13.232 116.396 13.28C116.66 13.136 116.948 13.004 117.26 12.884C117.572 12.764 117.884 12.704 118.196 12.704C118.436 12.704 118.676 12.728 118.916 12.776C119.18 12.8 119.432 12.836 119.672 12.884C119.792 12.836 119.924 12.788 120.068 12.74C120.212 12.692 120.356 12.668 120.5 12.668C120.764 12.668 120.896 12.788 120.896 13.028C120.896 13.148 120.824 13.388 120.68 13.748C120.56 14.084 120.416 14.408 120.248 14.72C120.104 15.008 119.984 15.176 119.888 15.224C119.672 15.656 119.468 16.22 119.276 16.916C119.084 17.588 118.928 18.284 118.808 19.004C118.688 19.724 118.628 20.336 118.628 20.84C118.628 21.104 118.664 21.404 118.736 21.74C118.832 22.052 119.06 22.208 119.42 22.208C119.828 22.208 120.236 22.052 120.644 21.74C121.076 21.404 121.448 21.08 121.76 20.768C122.072 20.432 122.252 20.264 122.3 20.264C122.348 20.264 122.372 20.288 122.372 20.336C122.372 20.552 122.252 20.804 122.012 21.092C121.772 21.38 121.508 21.656 121.22 21.92C120.932 22.16 120.716 22.34 120.572 22.46C120.284 22.676 119.96 22.868 119.6 23.036C119.264 23.204 118.916 23.288 118.556 23.288ZM112.04 22.028C112.16 22.028 112.304 21.98 112.472 21.884C112.64 21.764 112.772 21.668 112.868 21.596C114.308 20.564 115.436 19.376 116.252 18.032C117.068 16.688 117.86 15.248 118.628 13.712C118.532 13.664 118.424 13.628 118.304 13.604C118.184 13.58 118.064 13.568 117.944 13.568C117.488 13.568 117.032 13.688 116.576 13.928C116.144 14.168 115.784 14.456 115.496 14.792C115.04 15.272 114.572 15.908 114.092 16.7C113.636 17.468 113.216 18.272 112.832 19.112C112.448 19.928 112.16 20.66 111.968 21.308C111.944 21.38 111.92 21.452 111.896 21.524C111.872 21.596 111.86 21.68 111.86 21.776C111.86 21.944 111.92 22.028 112.04 22.028ZM122.096 23.54C121.928 23.54 121.856 23.48 121.88 23.36C122.504 22.256 123.056 21.128 123.536 19.976C124.016 18.8 124.484 17.624 124.94 16.448L125.336 15.404C125.336 15.332 125.276 15.308 125.156 15.332C125.036 15.356 124.976 15.32 124.976 15.224C124.976 15.176 125.072 14.996 125.264 14.684C125.456 14.348 125.66 14.012 125.876 13.676C126.092 13.316 126.224 13.1 126.272 13.028C126.368 12.884 126.584 12.74 126.92 12.596C127.256 12.452 127.508 12.38 127.676 12.38C127.94 12.38 128.072 12.488 128.072 12.704C128.072 12.776 128.06 12.848 128.036 12.92C128.012 12.992 127.988 13.052 127.964 13.1C127.604 13.964 127.208 14.828 126.776 15.692C126.368 16.532 126.032 17.408 125.768 18.32C126.464 17.48 127.22 16.664 128.036 15.872C128.876 15.056 129.728 14.312 130.592 13.64C130.832 13.448 131.096 13.268 131.384 13.1C131.696 12.932 132.008 12.848 132.32 12.848C132.704 12.848 132.944 12.992 133.04 13.28C133.136 13.544 133.184 13.82 133.184 14.108C133.184 14.492 133.064 14.9 132.824 15.332C132.584 15.764 132.236 15.98 131.78 15.98C131.588 15.98 131.492 15.908 131.492 15.764C131.492 15.644 131.504 15.548 131.528 15.476C131.552 15.38 131.564 15.284 131.564 15.188C131.564 15.068 131.516 14.924 131.42 14.756C131.324 14.588 131.216 14.504 131.096 14.504C130.784 14.504 130.364 14.696 129.836 15.08C129.308 15.464 128.756 15.932 128.18 16.484C127.628 17.036 127.124 17.576 126.668 18.104C126.236 18.608 125.924 18.98 125.732 19.22C125.468 19.604 125.24 20 125.048 20.408C124.856 20.792 124.7 21.188 124.58 21.596C124.532 21.74 124.484 21.896 124.436 22.064C124.388 22.208 124.34 22.34 124.292 22.46C124.244 22.58 124.064 22.736 123.752 22.928C123.44 23.096 123.116 23.24 122.78 23.36C122.468 23.48 122.24 23.54 122.096 23.54ZM127.212 35.024C126.564 35.024 125.892 34.904 125.196 34.664C124.5 34.448 123.912 34.088 123.432 33.584C122.952 33.104 122.712 32.48 122.712 31.712C122.712 31.016 122.916 30.38 123.324 29.804C123.708 29.228 124.212 28.7 124.836 28.22C125.436 27.764 126.072 27.356 126.744 26.996C127.416 26.636 128.016 26.348 128.544 26.132C129.888 25.58 131.352 25.16 132.936 24.872C134.544 24.584 136.068 24.392 137.508 24.296C137.94 23.192 138.372 22.088 138.804 20.984C139.26 19.88 139.608 18.74 139.848 17.564L139.992 16.88C139.68 17.288 139.248 17.84 138.696 18.536C138.168 19.232 137.58 19.94 136.932 20.66C136.308 21.38 135.672 21.992 135.024 22.496C134.376 22.976 133.8 23.216 133.296 23.216C132.888 23.216 132.612 23.048 132.468 22.712C132.324 22.352 132.252 22.004 132.252 21.668C132.252 20.756 132.456 19.892 132.864 19.076C133.272 18.236 133.68 17.432 134.088 16.664L133.98 16.7C133.836 16.7 133.764 16.628 133.764 16.484C133.764 16.46 133.788 16.4 133.836 16.304C134.148 15.728 134.412 15.236 134.628 14.828C134.844 14.42 135.132 14.108 135.492 13.892C135.852 13.676 136.404 13.568 137.148 13.568C137.292 13.568 137.364 13.628 137.364 13.748C137.364 13.94 137.232 14.264 136.968 14.72C136.704 15.176 136.416 15.644 136.104 16.124C135.792 16.58 135.576 16.904 135.456 17.096C135.264 17.384 135.036 17.804 134.772 18.356C134.508 18.908 134.28 19.46 134.088 20.012C133.896 20.54 133.8 20.972 133.8 21.308C133.8 21.428 133.824 21.548 133.872 21.668C133.92 21.764 134.016 21.812 134.16 21.812C134.472 21.812 134.868 21.632 135.348 21.272C135.828 20.888 136.332 20.408 136.86 19.832C137.388 19.256 137.904 18.656 138.408 18.032C138.912 17.384 139.344 16.796 139.704 16.268C140.088 15.716 140.364 15.284 140.532 14.972C140.724 14.636 140.856 14.288 140.928 13.928C141 13.544 141.228 13.232 141.612 12.992C141.78 12.896 141.996 12.8 142.26 12.704C142.524 12.584 142.74 12.524 142.908 12.524C143.148 12.524 143.268 12.644 143.268 12.884C143.268 13.22 143.148 13.568 142.908 13.928C142.692 14.264 142.5 14.576 142.332 14.864C142.116 15.272 141.912 15.764 141.72 16.34C141.552 16.892 141.396 17.408 141.252 17.888C140.868 18.944 140.496 20.012 140.136 21.092C139.8 22.148 139.392 23.204 138.912 24.26H139.632C139.824 24.26 140.004 24.272 140.172 24.296C140.364 24.32 140.46 24.392 140.46 24.512C140.46 24.632 140.328 24.704 140.064 24.728C139.824 24.752 139.56 24.752 139.272 24.728C139.008 24.728 138.828 24.728 138.732 24.728C138.252 25.88 137.64 27.056 136.896 28.256C136.176 29.48 135.324 30.596 134.34 31.604C133.38 32.636 132.312 33.464 131.136 34.088C129.936 34.712 128.628 35.024 127.212 35.024ZM127.068 34.268C128.244 34.268 129.36 33.944 130.416 33.296C131.448 32.672 132.396 31.868 133.26 30.884C134.148 29.9 134.928 28.856 135.6 27.752C136.296 26.672 136.86 25.676 137.292 24.764C135.948 24.86 134.508 25.064 132.972 25.376C131.436 25.712 130.068 26.192 128.868 26.816C128.268 27.104 127.608 27.5 126.888 28.004C126.144 28.508 125.508 29.084 124.98 29.732C124.428 30.404 124.152 31.124 124.152 31.892C124.152 32.708 124.464 33.308 125.088 33.692C125.688 34.076 126.348 34.268 127.068 34.268ZM141.762 26.6V26.564C141.786 26.516 141.882 26.396 142.05 26.204C142.218 26.012 142.326 25.892 142.374 25.844C142.782 25.388 143.202 24.86 143.634 24.26C144.09 23.684 144.39 23.108 144.534 22.532C144.582 22.412 144.594 22.316 144.57 22.244C144.57 22.148 144.57 22.052 144.57 21.956C144.57 21.764 144.654 21.524 144.822 21.236C145.014 20.924 145.218 20.768 145.434 20.768C145.578 20.768 145.698 20.828 145.794 20.948C145.914 21.068 145.998 21.188 146.046 21.308V21.38C146.07 21.812 145.878 22.292 145.47 22.82C145.086 23.348 144.762 23.768 144.498 24.08C144.402 24.176 144.222 24.356 143.958 24.62C143.718 24.884 143.442 25.16 143.13 25.448C142.842 25.76 142.566 26.024 142.302 26.24C142.038 26.48 141.858 26.6 141.762 26.6Z" fill="#A18447"/>
</svg>
